<?xml version="1.0" encoding="UTF-8"?>
<svg xmlns="http://www.w3.org/2000/svg"
	xmlns:xlink="http://www.w3.org/1999/xlink"
	version="1.1" baseProfile="full"
	width="100%" height="100%"
	viewBox="-500 -500 1000 1000">
	<title>Eisbuden</title>
	<desc>Zeigt die Haeuser und Eisbuden um den See</desc>
	<circle cx="0" cy="0" r="400" fill="white" stroke="black" stroke-width="2" />
	<line x1="-8" y1="-428" x2="8" y2="-412" stroke="blue" stroke-width="2" />
	<line x1="-8" y1="-412" x2="8" y2="-428" stroke="blue" stroke-width="2" />
	<line x1="-1.7266e-05" y1="-395" x2="-1.77031e-05" y2="-405" stroke="black" stroke-width="2" />
	<line x1="122.062" y1="-375.667" x2="125.152" y2="-385.178" stroke="black" stroke-width="2" />
	<line x1="232.175" y1="-319.562" x2="238.053" y2="-327.652" stroke="black" stroke-width="2" />
	<line x1="319.562" y1="-232.175" x2="327.652" y2="-238.053" stroke="black" stroke-width="2" />
	<line x1="375.667" y1="-122.062" x2="385.178" y2="-125.152" stroke="black" stroke-width="2" />
	<line x1="395" y1="0" x2="405" y2="0" stroke="black" stroke-width="2" />
	<line x1="375.667" y1="122.062" x2="385.178" y2="125.152" stroke="black" stroke-width="2" />
	<line x1="319.562" y1="232.175" x2="327.652" y2="238.053" stroke="black" stroke-width="2" />
	<line x1="232.175" y1="319.562" x2="238.053" y2="327.652" stroke="black" stroke-width="2" />
	<line x1="122.062" y1="375.667" x2="125.152" y2="385.178" stroke="black" stroke-width="2" />
	<line x1="-1.7266e-05" y1="395" x2="-1.77031e-05" y2="405" stroke="black" stroke-width="2" />
	<line x1="-122.062" y1="375.667" x2="-125.152" y2="385.178" stroke="black" stroke-width="2" />
	<line x1="-232.175" y1="319.562" x2="-238.053" y2="327.652" stroke="black" stroke-width="2" />
	<line x1="-319.562" y1="232.175" x2="-327.652" y2="238.053" stroke="black" stroke-width="2" />
	<line x1="-375.667" y1="122.062" x2="-385.178" y2="125.152" stroke="black" stroke-width="2" />
	<line x1="-395" y1="-3.4532e-05" x2="-405" y2="-3.54062e-05" stroke="black" stroke-width="2" />
	<line x1="-375.667" y1="-122.062" x2="-385.178" y2="-125.152" stroke="black" stroke-width="2" />
	<line x1="-319.562" y1="-232.175" x2="-327.652" y2="-238.053" stroke="black" stroke-width="2" />
	<line x1="-232.175" y1="-319.562" x2="-238.053" y2="-327.652" stroke="black" stroke-width="2" />
	<line x1="-122.062" y1="-375.667" x2="-125.152" y2="-385.178" stroke="black" stroke-width="2" />
	<line x1="-8.00002" y1="-408" x2="7.99998" y2="-392" stroke="red" stroke-width="2" />
	<line x1="-8.00002" y1="-392" x2="7.99998" y2="-408" stroke="red" stroke-width="2" />
	<line x1="227.114" y1="-331.607" x2="243.114" y2="-315.607" stroke="red" stroke-width="2" />
	<line x1="227.114" y1="-315.607" x2="243.114" y2="-331.607" stroke="red" stroke-width="2" />
	<line x1="315.607" y1="-243.114" x2="331.607" y2="-227.114" stroke="red" stroke-width="2" />
	<line x1="315.607" y1="-227.114" x2="331.607" y2="-243.114" stroke="red" stroke-width="2" />
	<line x1="227.114" y1="315.607" x2="243.114" y2="331.607" stroke="red" stroke-width="2" />
	<line x1="227.114" y1="331.607" x2="243.114" y2="315.607" stroke="red" stroke-width="2" />
	<line x1="-243.114" y1="315.607" x2="-227.114" y2="331.607" stroke="red" stroke-width="2" />
	<line x1="-243.114" y1="331.607" x2="-227.114" y2="315.607" stroke="red" stroke-width="2" />
	<line x1="-388.423" y1="115.607" x2="-372.423" y2="131.607" stroke="red" stroke-width="2" />
	<line x1="-388.423" y1="131.607" x2="-372.423" y2="115.607" stroke="red" stroke-width="2" />
	<line x1="-408" y1="-8.00004" x2="-392" y2="7.99997" stroke="red" stroke-width="2" />
	<line x1="-408" y1="7.99997" x2="-392" y2="-8.00004" stroke="red" stroke-width="2" />
	<line x1="238.87" y1="-347.787" x2="254.87" y2="-331.787" stroke="green" stroke-width="2" />
	<line x1="238.87" y1="-331.787" x2="254.87" y2="-347.787" stroke="green" stroke-width="2" />
	<line x1="238.87" y1="331.787" x2="254.87" y2="347.787" stroke="green" stroke-width="2" />
	<line x1="238.87" y1="347.787" x2="254.87" y2="331.787" stroke="green" stroke-width="2" />
	<line x1="-407.444" y1="121.787" x2="-391.444" y2="137.787" stroke="green" stroke-width="2" />
	<line x1="-407.444" y1="137.787" x2="-391.444" y2="121.787" stroke="green" stroke-width="2" />
</svg>
